<?xml version="1.0" encoding="UTF-8"?>
<svg id="_레이어_1" data-name="레이어_1" xmlns="http://www.w3.org/2000/svg" version="1.1" viewBox="0 0 16 16">
  <!-- Generator: Adobe Illustrator 29.3.0, SVG Export Plug-In . SVG Version: 2.1.0 Build 146)  -->
  <g id="back">
    <path d="M6.8,14c0,0-.2,0-.2,0L.9,8.2s0,0,0,0c0,0,0,0,0,0h0s0,0,0,0h0s0,0,0,0h0s0,0,0,0,0,0,0,0h0s0,0,0,0c0,0,0,0,0-.1h0c0,0,0,0,0-.1,0,0,0,0,0,0h0s0,0,0,0t0,0h0s0,0,0,0h0s0,0,0,0h0s0,0,0,0h0s0,0,0,0L6.6,2.1c.1-.1.3-.1.4,0,.1.1.1.3,0,.4L1.8,7.7h13.1c.2,0,.3.1.3.3s-.1.3-.3.3H1.8l5.2,5.1c.1.1.1.3,0,.4,0,0-.1,0-.2,0Z"/>
  </g>
</svg>