<svg width="13" height="16" viewBox="0 0 13 16" fill="none" xmlns="http://www.w3.org/2000/svg">
<path id="Vector" d="M11.6217 16C11.2785 15.9996 10.9483 15.8845 10.6979 15.678L6.81002 12.5384C6.72546 12.4693 6.61439 12.431 6.49906 12.431C6.38373 12.431 6.27266 12.4693 6.1881 12.5384L2.3011 15.678C2.10524 15.8367 1.86113 15.9419 1.59855 15.9806C1.33597 16.0193 1.06626 15.9899 0.822316 15.8961C0.578372 15.8022 0.370732 15.6478 0.224717 15.4519C0.0787025 15.2559 0.000623109 15.0268 0 14.7925V2.01258C0 1.47881 0.240895 0.966902 0.669691 0.589471C1.09849 0.212039 1.68006 0 2.28647 0H10.7135C11.3199 0 11.9015 0.212039 12.3303 0.589471C12.7591 0.966902 13 1.47881 13 2.01258V14.79C13.0022 15.0254 12.9252 15.256 12.7787 15.4528C12.6322 15.6497 12.4228 15.8039 12.1768 15.8962C12.002 15.9645 11.8129 15.9998 11.6217 16ZM6.49998 11.6247C6.84469 11.6239 7.17709 11.7375 7.43103 11.9426L11.3189 15.0823C11.3843 15.1353 11.4658 15.1705 11.5535 15.1834C11.6412 15.1963 11.7312 15.1864 11.8127 15.155C11.8941 15.1236 11.9633 15.0719 12.0119 15.0064C12.0605 14.9409 12.0864 14.8643 12.0863 14.786V2.01258C12.0863 1.69232 11.9417 1.38517 11.6845 1.15871C11.4272 0.932255 11.0782 0.805032 10.7144 0.805032H2.28647C1.92262 0.805032 1.57368 0.932255 1.3164 1.15871C1.05912 1.38517 0.914588 1.69232 0.914588 2.01258V14.79C0.914504 14.8683 0.940341 14.9449 0.988935 15.0104C1.03753 15.076 1.10678 15.1276 1.1882 15.159C1.26962 15.1905 1.35968 15.2003 1.44737 15.1874C1.53506 15.1745 1.61657 15.1393 1.68193 15.0863L5.56984 11.9386C5.82424 11.7351 6.15619 11.623 6.49998 11.6247Z" fill="#989898"/>
</svg>
