<svg width="20" height="20" viewBox="0 0 20 20" fill="none" xmlns="http://www.w3.org/2000/svg">
<g id="material-symbols-light:category-outline">
<path id="Vector" d="M6.57077 8.525L9.99993 2.88583L13.4299 8.52667L6.57077 8.525ZM14.5833 17.6917C13.7127 17.6917 12.9769 17.3914 12.3758 16.7908C11.7747 16.1903 11.4741 15.4544 11.4741 14.5833C11.4741 13.7122 11.7747 12.9764 12.3758 12.3758C12.9769 11.7753 13.7127 11.4747 14.5833 11.4742C15.4538 11.4736 16.1897 11.7742 16.7908 12.3758C17.3919 12.9775 17.6924 13.7133 17.6924 14.5833C17.6924 15.4533 17.3919 16.1892 16.7908 16.7908C16.1897 17.3925 15.4538 17.6931 14.5833 17.6925M3.1416 17.2758V11.8908H8.52493V17.2758H3.1416ZM14.5833 16.8592C15.2199 16.8592 15.7585 16.6392 16.1991 16.1992C16.6397 15.7592 16.8597 15.2206 16.8591 14.5833C16.8585 13.9461 16.6385 13.4075 16.1991 12.9675C15.7597 12.5275 15.221 12.3075 14.5833 12.3075C13.9455 12.3075 13.4069 12.5275 12.9674 12.9675C12.528 13.4075 12.308 13.9461 12.3074 14.5833C12.3069 15.2206 12.5269 15.7592 12.9674 16.1992C13.408 16.6392 13.9466 16.8592 14.5833 16.8592ZM3.97493 16.4425H7.6916V12.7242H3.97493V16.4425ZM8.02243 7.6925H11.9774L9.99993 4.5225L8.02243 7.6925Z" fill="#535353"/>
</g>
</svg>
