<svg width="14" height="14" viewBox="0 0 14 14" fill="none" xmlns="http://www.w3.org/2000/svg">
<path id="Vector" d="M12.8947 14C13.1879 14 13.469 13.8836 13.6763 13.6763C13.8836 13.469 14 13.1879 14 12.8947V10.3158C14 10.0227 13.8836 9.74153 13.6763 9.53425C13.469 9.32697 13.1879 9.21053 12.8947 9.21053C12.0326 9.21053 11.1853 9.07789 10.3747 8.80526C10.181 8.7441 9.97412 8.73717 9.77668 8.78523C9.57924 8.83329 9.39873 8.93451 9.25474 9.07789L8.19368 10.1389C6.36065 9.13856 4.85408 7.63198 3.85368 5.79895L4.90737 4.74526C5.20947 4.45789 5.32 4.03053 5.18737 3.61789C4.92211 2.81474 4.78947 1.96737 4.78947 1.10526C4.78947 0.812129 4.67303 0.531001 4.46575 0.323724C4.25847 0.116447 3.97734 0 3.68421 0H1.10526C0.812129 0 0.531001 0.116447 0.323724 0.323724C0.116447 0.531001 0 0.812129 0 1.10526C0 8.21579 5.78421 14 12.8947 14ZM1.10526 0.736842H3.68421C3.78192 0.736842 3.87563 0.775658 3.94472 0.84475C4.01382 0.913843 4.05263 1.00755 4.05263 1.10526C4.05263 2.04842 4.2 2.96947 4.48737 3.84632C4.52421 3.94947 4.51684 4.09684 4.39895 4.21474L2.94737 5.65895C4.16316 8.03895 5.94632 9.82211 8.33368 11.0526L9.77053 9.60105C9.87368 9.4979 10.0137 9.46842 10.1463 9.50526C11.0305 9.8 11.9516 9.94737 12.8947 9.94737C12.9924 9.94737 13.0862 9.98618 13.1552 10.0553C13.2243 10.1244 13.2632 10.2181 13.2632 10.3158V12.8947C13.2632 12.9924 13.2243 13.0862 13.1552 13.1552C13.0862 13.2243 12.9924 13.2632 12.8947 13.2632C6.18947 13.2632 0.736842 7.81053 0.736842 1.10526C0.736842 1.00755 0.775658 0.913843 0.84475 0.84475C0.913843 0.775658 1.00755 0.736842 1.10526 0.736842Z" fill="#989898"/>
</svg>
