<svg width="16" height="16" viewBox="0 0 16 16" fill="none" xmlns="http://www.w3.org/2000/svg">
<g id="Group 27449">
<path id="Vector" d="M15.7285 7.90926L8.08924 0.269977C8.00373 0.184144 7.90207 0.116096 7.79012 0.0697592C7.67817 0.0234222 7.55816 -0.000286104 7.437 2.6054e-06H0.307666C0.226069 2.6054e-06 0.147813 0.0324171 0.0901152 0.0901152C0.0324171 0.147813 2.6054e-06 0.226069 2.6054e-06 0.307666V7.437C-0.000286104 7.55816 0.0234222 7.67817 0.0697592 7.79012C0.116096 7.90207 0.184144 8.00373 0.269977 8.08924L7.90926 15.7285C7.99501 15.8146 8.0969 15.8828 8.20909 15.9294C8.32128 15.976 8.44157 16 8.56305 16C8.68452 16 8.80481 15.976 8.917 15.9294C9.02919 15.8828 9.13108 15.8146 9.21683 15.7285L15.7308 9.21452C15.8169 9.12877 15.8852 9.02688 15.9317 8.91469C15.9783 8.8025 16.0023 8.68222 16.0023 8.56074C16.0023 8.43926 15.9783 8.31898 15.9317 8.20679C15.8852 8.09459 15.8169 7.9927 15.7308 7.90695L15.7285 7.90926ZM15.2932 8.77918L8.77918 15.2932C8.7215 15.3507 8.64336 15.383 8.56189 15.383C8.48042 15.383 8.40228 15.3507 8.34461 15.2932L0.705321 7.6539C0.647826 7.59634 0.615469 7.51835 0.61533 7.437V0.61533H7.437C7.51835 0.615469 7.59634 0.647826 7.6539 0.705321L15.2932 8.3446C15.3507 8.40228 15.383 8.48042 15.383 8.56189C15.383 8.64336 15.3507 8.7215 15.2932 8.77918Z" fill="#989898"/>
<circle id="Ellipse 19" cx="4.17634" cy="4.17647" r="1.44319" stroke="#989898" stroke-width="0.5"/>
</g>
</svg>
