<svg width="20" height="20" viewBox="0 0 20 20" fill="none" xmlns="http://www.w3.org/2000/svg">
<g id="Frame 61213">
<path id="Vector" d="M17.2273 4C17.4322 4 17.6288 4.07609 17.7737 4.21153C17.9186 4.34698 18 4.53068 18 4.72222V16.2828C17.9986 16.4725 17.9174 16.654 17.774 16.7882C17.6305 16.9224 17.4364 16.9985 17.2335 17H3.312C3.10863 16.9998 2.91366 16.9242 2.76992 16.7897C2.62619 16.6552 2.54545 16.4729 2.54545 16.2828V15.5556H16.4545V7.10556L10.2727 12.3056L2.54545 5.80556V4.72222C2.54545 4.53068 2.62687 4.34698 2.77178 4.21153C2.9167 4.07609 3.11324 4 3.31818 4H17.2273ZM7.18182 12.6667V14.1111H1V12.6667H7.18182ZM4.86364 9.05556V10.5H1V9.05556H4.86364ZM16.1192 5.44444H4.42627L10.2727 10.3628L16.1192 5.44444Z" fill="#989898"/>
</g>
</svg>
