<svg width="20" height="20" viewBox="0 0 20 20" fill="none" xmlns="http://www.w3.org/2000/svg">
<g id="Frame 628">
<path id="Vector" d="M17.8638 7.97661C17.5608 7.66 17.2474 7.33375 17.1293 7.04688C17.02 6.78411 17.0136 6.34857 17.0071 5.9267C16.9951 5.14241 16.9822 4.25366 16.3643 3.63571C15.7463 3.01777 14.8576 3.00491 14.0733 2.99286C13.6514 2.98643 13.2159 2.98 12.9531 2.87071C12.6671 2.75259 12.34 2.4392 12.0234 2.13625C11.4689 1.60348 10.8389 1 10 1C9.16107 1 8.53187 1.60348 7.97661 2.13625C7.66 2.4392 7.33375 2.75259 7.04688 2.87071C6.78571 2.98 6.34857 2.98643 5.9267 2.99286C5.14241 3.00491 4.25366 3.01777 3.63571 3.63571C3.01777 4.25366 3.00893 5.14241 2.99286 5.9267C2.98643 6.34857 2.98 6.78411 2.87071 7.04688C2.75259 7.33295 2.4392 7.66 2.13625 7.97661C1.60348 8.53107 1 9.16107 1 10C1 10.8389 1.60348 11.4681 2.13625 12.0234C2.4392 12.34 2.75259 12.6663 2.87071 12.9531C2.98 13.2159 2.98643 13.6514 2.99286 14.0733C3.00491 14.8576 3.01777 15.7463 3.63571 16.3643C4.25366 16.9822 5.14241 16.9951 5.9267 17.0071C6.34857 17.0136 6.78411 17.02 7.04688 17.1293C7.33295 17.2474 7.66 17.5608 7.97661 17.8638C8.53107 18.3965 9.16107 19 10 19C10.8389 19 11.4681 18.3965 12.0234 17.8638C12.34 17.5608 12.6663 17.2474 12.9531 17.1293C13.2159 17.02 13.6514 17.0136 14.0733 17.0071C14.8576 16.9951 15.7463 16.9822 16.3643 16.3643C16.9822 15.7463 16.9951 14.8576 17.0071 14.0733C17.0136 13.6514 17.02 13.2159 17.1293 12.9531C17.2474 12.6671 17.5608 12.34 17.8638 12.0234C18.3965 11.4689 19 10.8389 19 10C19 9.16107 18.3965 8.53187 17.8638 7.97661ZM16.9356 11.1338C16.5507 11.5356 16.1521 11.9511 15.9408 12.4613C15.7383 12.9515 15.7295 13.5116 15.7214 14.054C15.7134 14.6165 15.7046 15.2055 15.4546 15.4546C15.2047 15.7038 14.6197 15.7134 14.054 15.7214C13.5116 15.7295 12.9515 15.7383 12.4613 15.9408C11.9511 16.1521 11.5356 16.5507 11.1338 16.9356C10.7321 17.3205 10.3214 17.7143 10 17.7143C9.67857 17.7143 9.26473 17.3189 8.86616 16.9356C8.46759 16.5523 8.04893 16.1521 7.53866 15.9408C7.04848 15.7383 6.48839 15.7295 5.94598 15.7214C5.38348 15.7134 4.79446 15.7046 4.54536 15.4546C4.29625 15.2047 4.28661 14.6197 4.27857 14.054C4.27054 13.5116 4.2617 12.9515 4.0592 12.4613C3.84786 11.9511 3.44929 11.5356 3.06437 11.1338C2.67946 10.7321 2.28571 10.3214 2.28571 10C2.28571 9.67857 2.68107 9.26473 3.06437 8.86616C3.44768 8.46759 3.84786 8.04893 4.0592 7.53866C4.2617 7.04848 4.27054 6.48839 4.27857 5.94598C4.28661 5.38348 4.29545 4.79446 4.54536 4.54536C4.79527 4.29625 5.38027 4.28661 5.94598 4.27857C6.48839 4.27054 7.04848 4.2617 7.53866 4.0592C8.04893 3.84786 8.46438 3.44929 8.86616 3.06437C9.26795 2.67946 9.67857 2.28571 10 2.28571C10.3214 2.28571 10.7353 2.68107 11.1338 3.06437C11.5324 3.44768 11.9511 3.84786 12.4613 4.0592C12.9515 4.2617 13.5116 4.27054 14.054 4.27857C14.6165 4.28661 15.2055 4.29545 15.4546 4.54536C15.7038 4.79527 15.7134 5.38027 15.7214 5.94598C15.7295 6.48839 15.7383 7.04848 15.9408 7.53866C16.1521 8.04893 16.5507 8.46438 16.9356 8.86616C17.3205 9.26795 17.7143 9.67857 17.7143 10C17.7143 10.3214 17.3189 10.7353 16.9356 11.1338ZM13.6691 7.61661C13.7289 7.67631 13.7763 7.74721 13.8086 7.82525C13.841 7.90329 13.8576 7.98695 13.8576 8.07143C13.8576 8.15591 13.841 8.23956 13.8086 8.3176C13.7763 8.39565 13.7289 8.46655 13.6691 8.52625L9.16911 13.0262C9.1094 13.086 9.0385 13.1334 8.96046 13.1658C8.88242 13.1981 8.79877 13.2148 8.71429 13.2148C8.6298 13.2148 8.54615 13.1981 8.46811 13.1658C8.39007 13.1334 8.31917 13.086 8.25946 13.0262L6.33089 11.0977C6.21027 10.9771 6.1425 10.8134 6.1425 10.6429C6.1425 10.4723 6.21027 10.3087 6.33089 10.188C6.45152 10.0674 6.61512 9.99964 6.78571 9.99964C6.95631 9.99964 7.11991 10.0674 7.24054 10.188L8.71429 11.6626L12.7595 7.61661C12.8192 7.55684 12.8901 7.50942 12.9681 7.47707C13.0462 7.44472 13.1298 7.42807 13.2143 7.42807C13.2988 7.42807 13.3824 7.44472 13.4605 7.47707C13.5385 7.50942 13.6094 7.55684 13.6691 7.61661Z" fill="#989898"/>
</g>
</svg>
