<svg width="55" height="55" viewBox="0 0 55 55" fill="none" xmlns="http://www.w3.org/2000/svg">
<g id="Group 27425">
<circle id="Ellipse 18" cx="27" cy="27" r="27" fill="#FFB052"/>
<g id="Group 27424">
<path id="Vector" d="M46 54.25C50.5563 54.25 54.25 50.5563 54.25 46C54.25 41.4437 50.5563 37.75 46 37.75C41.4437 37.75 37.75 41.4437 37.75 46C37.75 50.5563 41.4437 54.25 46 54.25Z" fill="#FFB052" stroke="white" stroke-width="0.5"/>
<g id="Group">
<path id="Vector_2" d="M45.3828 43.5384C45.3828 43.1985 45.6583 42.923 45.9982 42.923C46.3381 42.923 46.6136 43.1985 46.6136 43.5384V48.4614C46.6136 48.8013 46.3381 49.0768 45.9982 49.0768C45.6583 49.0768 45.3828 48.8013 45.3828 48.4614V43.5384Z" fill="white"/>
</g>
<g id="Group_2">
<path id="Vector_3" d="M48.4618 45.3844C48.8016 45.3844 49.0771 45.6599 49.0771 45.9998C49.0771 46.3397 48.8016 46.6152 48.4618 46.6152L43.5387 46.6152C43.1988 46.6152 42.9233 46.3397 42.9233 45.9998C42.9233 45.6599 43.1988 45.3844 43.5387 45.3844L48.4618 45.3844Z" fill="white"/>
</g>
</g>
</g>
</svg>
