<svg width="18" height="20" viewBox="0 0 18 20" fill="none" xmlns="http://www.w3.org/2000/svg">
<path id="Vector" d="M17.4432 14.1506C16.9125 13.2375 16.1241 10.6622 16.1241 7.3125C16.1241 5.3731 15.3537 3.51314 13.9823 2.14178C12.611 0.770422 10.751 0 8.81161 0C6.87221 0 5.01225 0.770422 3.64089 2.14178C2.26953 3.51314 1.49911 5.3731 1.49911 7.3125C1.49911 10.6631 0.709733 13.2375 0.179108 14.1506C0.0626845 14.35 0.000907291 14.5765 9.91773e-06 14.8074C-0.000887456 15.0383 0.0591269 15.2653 0.173997 15.4655C0.288867 15.6658 0.454528 15.8322 0.654263 15.948C0.853999 16.0638 1.08074 16.1248 1.31161 16.125H5.29411C5.43073 16.9589 5.8593 17.717 6.50329 18.2641C7.14728 18.8111 7.96475 19.1115 8.80973 19.1115C9.65472 19.1115 10.4722 18.8111 11.1162 18.2641C11.7602 17.717 12.1887 16.9589 12.3254 16.125H16.3116C16.5423 16.1245 16.7688 16.0632 16.9683 15.9473C17.1678 15.8314 17.3332 15.6649 17.4478 15.4647C17.5625 15.2645 17.6223 15.0376 17.6213 14.8069C17.6204 14.5762 17.5586 14.3498 17.4422 14.1506H17.4432ZM8.81161 18C8.26308 17.9998 7.73065 17.8146 7.3004 17.4744C6.87016 17.1341 6.56725 16.6587 6.44067 16.125H11.1825C11.056 16.6587 10.7531 17.1341 10.3228 17.4744C9.89257 17.8146 9.36014 17.9998 8.81161 18ZM16.4719 14.9062C16.4565 14.935 16.4335 14.9589 16.4054 14.9754C16.3772 14.992 16.3451 15.0005 16.3125 15H1.31161C1.27901 15.0005 1.24691 14.992 1.2188 14.9754C1.1907 14.9589 1.16767 14.935 1.15223 14.9062C1.13578 14.8777 1.12711 14.8454 1.12711 14.8125C1.12711 14.7796 1.13578 14.7473 1.15223 14.7187C1.86192 13.5 2.62411 10.6584 2.62411 7.3125C2.62411 5.67147 3.276 4.09766 4.43639 2.93728C5.59677 1.7769 7.17058 1.125 8.81161 1.125C10.4526 1.125 12.0265 1.7769 13.1868 2.93728C14.3472 4.09766 14.9991 5.67147 14.9991 7.3125C14.9991 10.6575 15.7622 13.4953 16.4719 14.7187C16.4884 14.7473 16.497 14.7796 16.497 14.8125C16.497 14.8454 16.4884 14.8777 16.4719 14.9062Z" fill="#353549"/>
</svg>
